<svg xmlns="http://www.w3.org/2000/svg" viewBox="0 0 64 64">
  <defs>
    <linearGradient id="g" x1="0" y1="0" x2="1" y2="1">
      <stop offset="0%" stop-color="#7aa2ff"/>
      <stop offset="100%" stop-color="#3ddc97"/>
    </linearGradient>
  </defs>
  <rect x="4" y="4" width="56" height="56" rx="14" fill="#11131a" stroke="#262a36" stroke-width="3"/>
  <path fill="url(#g)" d="M32 16c-8.84 0-16 7.16-16 16s7.16 16 16 16c6.52 0 12.13-3.9 14.62-9.5H34v-7h20c.11.8.16 1.63.16 2.5C54.16 45.05 44.87 54 32 54 19.3 54 9 43.7 9 31S19.3 8 32 8c7.26 0 13.74 3.37 17.95 8.63l-5.39 4.93C41.52 18.13 37 16 32 16Z"/>
</svg>
